<?xml version="1.0" standalone="no"?>
<!DOCTYPE svg PUBLIC "-//W3C//DTD SVG 20010904//EN"
 "http://www.w3.org/TR/2001/REC-SVG-20010904/DTD/svg10.dtd">
<svg version="1.0" xmlns="http://www.w3.org/2000/svg"
 width="200.000000pt" height="200.000000pt" viewBox="0 0 200.000000 200.000000"
 preserveAspectRatio="xMidYMid meet">

<g transform="translate(0.000000,200.000000) scale(0.100000,-0.100000)"
fill="#000000" stroke="none">
<path d="M105 1507 c-21 -12 -53 -42 -70 -65 l-30 -44 -3 -521 c-2 -373 0
-533 8 -561 17 -56 55 -102 106 -126 37 -19 44 -26 44 -51 0 -18 10 -39 25
-54 21 -21 33 -25 88 -25 78 0 114 22 119 73 l3 32 263 3 262 2 0 -30 c0 -19
9 -40 25 -55 21 -21 33 -25 88 -25 80 0 117 23 117 74 0 29 5 35 39 51 49 22
85 59 105 107 14 32 16 110 16 563 0 465 -2 530 -16 558 -23 45 -53 76 -96 98
-35 18 -65 19 -545 19 -508 0 -508 0 -548 -23z m325 -104 l0 -48 -170 3 c-111
2 -170 7 -170 13 0 6 15 26 34 45 l34 34 136 0 136 0 0 -47z m205 40 c-28 -7
-62 -41 -69 -69 -9 -35 20 -90 55 -104 91 -38 172 85 99 148 -11 9 -30 20 -43
24 -12 3 17 6 66 7 l87 1 0 -100 0 -100 -154 0 c-85 0 -161 3 -170 6 -13 5
-16 24 -16 100 l0 94 83 -1 c45 -1 73 -3 62 -6z m408 -20 c8 -16 15 -61 16
-100 l1 -73 -90 0 -90 0 0 100 0 100 75 0 c71 0 75 -1 88 -27z m-346 -59 c6
-16 -23 -54 -42 -54 -7 0 -20 9 -29 19 -30 33 7 79 47 59 10 -5 21 -16 24 -24z
m-280 -62 c6 -4 15 -20 18 -35 4 -15 19 -36 32 -47 25 -19 42 -20 394 -20
l369 0 0 -405 0 -405 -114 0 c-112 0 -114 -1 -145 -29 -25 -23 -31 -37 -31
-70 l0 -41 -389 0 c-383 0 -389 0 -416 22 -55 43 -55 47 -55 563 l0 475 163 0
c89 0 167 -4 174 -8z m797 -991 c-27 -46 -63 -61 -148 -61 l-76 0 0 29 c0 52
20 61 136 61 l105 0 -17 -29z m-904 -161 c0 -5 -13 -10 -30 -10 -16 0 -30 5
-30 10 0 6 14 10 30 10 17 0 30 -4 30 -10z m760 0 c0 -5 -16 -10 -35 -10 -19
0 -35 5 -35 10 0 6 16 10 35 10 19 0 35 -4 35 -10z"/>
<path d="M914 1405 c-10 -25 9 -37 57 -33 36 2 44 7 44 23 0 17 -8 20 -48 23
-36 2 -49 -1 -53 -13z"/>
<path d="M914 1315 c-10 -25 9 -37 57 -33 36 2 44 7 44 23 0 17 -8 20 -48 23
-36 2 -49 -1 -53 -13z"/>
<path d="M530 1132 c-82 -28 -114 -47 -169 -102 -91 -91 -131 -185 -131 -312
0 -285 286 -496 553 -407 126 42 201 109 264 235 65 133 55 274 -31 408 -44
69 -106 122 -186 159 -85 39 -215 47 -300 19z m178 -46 c15 -8 36 -23 46 -35
l19 -21 -32 11 c-17 6 -64 10 -104 8 -122 -7 -219 -70 -280 -184 -19 -34 -22
-56 -22 -147 0 -60 -1 -108 -1 -108 -1 0 -14 18 -29 40 -25 36 -27 46 -23 104
13 157 142 306 292 336 64 12 105 11 134 -4z m45 -102 c25 -9 66 -33 89 -54
l43 -38 3 -125 4 -126 -39 -10 c-75 -21 -126 -14 -208 29 -85 45 -155 53 -222
25 -19 -8 -37 -15 -39 -15 -2 0 -4 24 -4 53 0 192 188 324 373 261z m-115
-375 c76 -41 78 -41 160 -36 96 6 103 -3 45 -53 -104 -91 -248 -98 -355 -17
-46 35 -91 94 -85 111 7 20 52 36 105 36 43 0 67 -8 130 -41z"/>
<path d="M1758 781 c-23 -19 -40 -21 -147 -21 -141 0 -181 -12 -206 -60 -15
-29 -16 -52 -6 -234 20 -358 19 -353 74 -386 28 -18 51 -20 197 -20 233 0 242
7 255 200 3 56 11 97 17 99 7 2 22 15 35 29 22 24 23 31 23 188 0 158 -1 164
-24 191 -22 26 -31 28 -108 31 -72 3 -86 1 -110 -17z m162 -201 l0 -140 -60 0
-60 0 0 140 0 140 60 0 60 0 0 -140z m-200 20 c0 -76 -1 -81 -25 -92 -39 -18
-78 0 -91 42 -12 38 -38 51 -48 25 -8 -21 15 -75 44 -100 15 -14 36 -20 71
-20 45 0 49 -2 49 -24 0 -41 37 -71 86 -71 l43 0 -6 -98 c-3 -53 -10 -103 -16
-110 -7 -9 -49 -12 -166 -10 l-156 3 -7 55 c-3 30 -12 147 -18 259 -10 171
-10 205 1 212 8 5 65 9 127 9 l112 0 0 -80z"/>
<path d="M1524 406 c-8 -35 4 -68 24 -64 12 2 18 16 20 46 3 37 1 42 -17 42
-13 0 -23 -9 -27 -24z"/>
<path d="M1734 297 c-3 -9 -4 -28 -2 -44 2 -20 8 -28 23 -28 17 0 20 7 20 40
0 30 -4 41 -18 43 -9 2 -20 -3 -23 -11z"/>
<path d="M1620 230 c0 -28 5 -43 16 -47 21 -8 35 15 32 52 -2 23 -9 31 -25 33
-21 3 -23 -1 -23 -38z"/>
</g>
</svg>
